<svg xmlns="http://www.w3.org/2000/svg" viewBox="0 0 268 56" fill="none" role="img" aria-label="Kranbstour — India Tour Packages">
  <defs>
    <linearGradient id="kbw-icon-grad" x1="26" y1="4" x2="26" y2="52" gradientUnits="userSpaceOnUse">
      <stop stop-color="#186961"/>
      <stop offset="1" stop-color="#3db976"/>
    </linearGradient>
  </defs>

  <rect x="2" y="4" width="48" height="48" rx="3" fill="url(#kbw-icon-grad)"/>
  <g fill="#ffffff">
    <rect x="14.5" y="14" width="3.8" height="28" rx="0.6"/>
    <path d="M18.3 28.2 31.8 41.5h-4.8L18.3 32.5V41.5h-3.8V14h3.8v14.2z"/>
    <path d="m18.3 25.8 11.5-11.8h4.6l-7.8 8 9.5-.2-1.8 3.1-9.4.3-6.1 6.1z"/>
    <circle cx="20.8" cy="27.8" r="1.1" fill="#fff"/>
    <path d="M20.8 25.2v5.2M18.4 27.8h4.8M19.5 26.7l2.6 2.2M19.5 28.9l2.6-2.2" stroke="#fff" stroke-width="0.85" stroke-linecap="round"/>
  </g>

  <text x="60" y="26.5"
        font-family="'Plus Jakarta Sans', 'Segoe UI', system-ui, sans-serif"
        font-size="19"
        font-weight="800"
        fill="#ffffff"
        letter-spacing="0.8">KRANBSTOUR</text>
  <text x="60" y="42.5"
        font-family="'Plus Jakarta Sans', 'Segoe UI', system-ui, sans-serif"
        font-size="7.6"
        font-weight="600"
        fill="#86efcf"
        letter-spacing="3.4">INDIA TOUR PACKAGES</text>
</svg>
